<?xml version="1.0" encoding="utf-8"?>
<!-- Generator: Adobe Illustrator 23.0.3, SVG Export Plug-In . SVG Version: 6.00 Build 0)  -->
<svg version="1.1" id="Layer_1" xmlns="http://www.w3.org/2000/svg" xmlns:xlink="http://www.w3.org/1999/xlink" x="0px" y="0px"
	 viewBox="0 0 512 512" style="enable-background:new 0 0 512 512;" xml:space="preserve">
<style type="text/css">
	.st0{fill:#894D1B;}
	.st1{fill:#FFDA44;}
	.st2{fill:#D70027;}
	.st3{fill:#BC0031;}
	.st4{fill:#BC0029;}
	.st5{enable-background:new    ;}
</style>
<g>
	<path class="st0" d="M15.4,173l-1.2-3.7c-1.3-4.2,1-8.6,5.1-10L465.5,11.9c4.2-1.4,8.8,0.9,10.2,5.2l5,15.9
		c1.3,4.3-1.1,8.8-5.3,10.1l-450,135.2C21.1,179.5,16.7,177.2,15.4,173z"/>
</g>
<g>
	<path class="st0" d="M21.8,193.8l0.5,3.8c0.6,4.3,4.6,7.4,8.9,6.9l466.2-58.4c4.4-0.6,7.6-4.6,6.9-9.1l-2.3-16.5
		c-0.6-4.4-4.7-7.5-9.2-6.8l-464.5,71C24.2,185.4,21.2,189.4,21.8,193.8z"/>
</g>
<g>
	<g>
		<path class="st1" d="M215.5,155.9c0-15.6,3.5-22.9,7.5-31.4c3.9-8.4,8.9-21.8,10.3-38.7c0.3-4-3.5-7-7.3-5.8l-12.3,4.1
			c-2.1,0.7-3.6,2.6-3.8,4.8c-0.9,11-3.8,17.4-7.2,24.5c-4.7,9.9-9.9,21.1-9.9,42.5s5.3,32.6,9.9,42.5c4,8.5,7.5,15.9,7.5,31.4
			s-3.5,22.9-7.5,31.4c-4.6,9.9-9.9,21.1-9.9,42.5c0,6.8,5.1,12.2,11.3,12.2c6.3,0,11.3-5.5,11.3-12.2c0-15.6,3.5-22.9,7.5-31.4
			c4.6-9.9,9.9-21.1,9.9-42.5s-5.3-32.6-9.9-42.5C218.9,178.8,215.5,171.5,215.5,155.9z"/>
	</g>
	<g>
		<path class="st1" d="M164.8,155.9c0-15.6,3.5-22.9,7.5-31.4c2.7-5.7,5.6-11.9,7.6-20.2c1-4.2-3-7.9-7.1-6.6l-13.7,4.5
			c-1.6,0.5-2.8,1.7-3.4,3.3c-1.1,2.7-2.3,5.3-3.5,8c-4.6,9.9-9.9,21.1-9.9,42.5s5.3,32.6,9.9,42.5c4,8.5,7.5,15.9,7.5,31.4
			s-3.5,22.9-7.5,31.4c-4.6,9.9-9.9,21.1-9.9,42.5c0,6.8,5.1,12.2,11.3,12.2c6.3,0,11.3-5.5,11.3-12.2c0-15.6,3.5-22.9,7.5-31.4
			c4.6-9.9,9.9-21.1,9.9-42.5s-5.3-32.6-9.9-42.5C168.2,178.8,164.8,171.5,164.8,155.9z"/>
	</g>
	<g>
		<path class="st1" d="M114.1,155.9c0-15.6,3.5-22.9,7.5-31.4c0,0,0-0.1,0.1-0.1c2.1-4.4-2.1-9.1-6.8-7.6l-15.1,5
			c-1.6,0.5-2.9,1.8-3.5,3.3c-2.8,7.7-4.9,17.2-4.9,30.8c0,21.4,5.3,32.6,9.9,42.5c4,8.5,7.5,15.9,7.5,31.4s-3.5,22.9-7.5,31.4
			c-4.7,9.9-9.9,21.1-9.9,42.5c0,6.8,5.1,12.2,11.3,12.2c6.3,0,11.3-5.5,11.3-12.2c0-15.6,3.5-22.9,7.5-31.4
			c4.6-9.9,9.9-21.1,9.9-42.5s-5.3-32.6-9.9-42.5C117.5,178.8,114.1,171.5,114.1,155.9z"/>
	</g>
	<g>
		<path class="st1" d="M63.3,155.9c0-5.5,0.4-10,1.2-13.8c0.8-4.2-3.1-7.7-7.2-6.3l-12.3,4c-2.1,0.7-3.6,2.5-3.8,4.7
			c-0.4,3.4-0.6,7.2-0.6,11.4c0,21.4,5.3,32.6,9.9,42.5c4,8.5,7.5,15.9,7.5,31.4s-3.5,22.9-7.5,31.4c-4.6,9.9-9.9,21.1-9.9,42.5
			c0,6.8,5.1,12.2,11.3,12.2s11.3-5.5,11.3-12.2c0-15.6,3.5-22.9,7.5-31.4c4.6-9.9,9.9-21.1,9.9-42.5s-5.3-32.6-9.9-42.5
			C66.8,178.8,63.3,171.5,63.3,155.9z"/>
	</g>
</g>
<g>
	<path class="st2" d="M11.8,283.7c-2.6,0-4.6,2.2-4.3,4.8C12,333,31.4,414.8,111.7,466c0.6,0.4,1.3,0.7,2,0.9v17.3
		c0,8.5,6.9,15.4,15.4,15.4h195.3c8.5,0,15.4-6.9,15.4-15.4v-17.3c0.7-0.2,1.3-0.5,1.9-0.9c80.3-51.2,99.7-133,104.2-177.5
		c0.3-2.6-1.7-4.8-4.3-4.8H11.8z"/>
</g>
<g>
	<path class="st3" d="M441.5,283.7h-57.9c2.6,0,4.6,2.2,4.3,4.8C383.4,333,364,414.8,283.7,466c-0.6,0.4-1.2,0.7-1.9,0.9v17.3
		c0,8.5-6.9,15.4-15.4,15.4h57.9c8.5,0,15.4-6.9,15.4-15.4v-17.3c0.7-0.2,1.3-0.5,1.9-0.9c80.3-51.2,99.7-133,104.2-177.5
		C446.1,286,444.1,283.7,441.5,283.7z"/>
</g>
<g>
	<path class="st2" d="M339.7,484.2v-17.3H113.6c0,0,0,0,0.1,0v17.3c0,8.5,6.9,15.4,15.4,15.4h195.3
		C332.8,499.6,339.7,492.7,339.7,484.2z"/>
</g>
<g>
	<path class="st4" d="M281.8,484.2c0,8.5-6.9,15.4-15.4,15.4h57.9c8.5,0,15.4-6.9,15.4-15.4v-17.3h-57.9V484.2L281.8,484.2z"/>
</g>
<g>
	<path d="M511.8,136l-2.3-16.5c-0.6-4.1-2.7-7.8-6.1-10.3s-7.5-3.5-11.6-2.9l-268.4,41.1c0.9-8.2,3.3-13.3,6.3-19.7
		c0.5-1.1,1-2.2,1.6-3.5l246.2-73.9c4-1.2,7.3-3.9,9.2-7.6c2-3.7,2.3-7.9,1.1-11.9l-5-15.9c-1.3-4-4-7.2-7.7-9.1s-8-2.2-11.9-0.9
		L389.8,29c-3.9,1.3-6.1,5.5-4.8,9.5c1.3,3.9,5.5,6.1,9.5,4.8L467.8,19c0.1,0,0.2-0.1,0.4,0c0.2,0.1,0.2,0.3,0.3,0.3l5,15.9
		c0,0.1,0.1,0.2,0,0.4s-0.3,0.2-0.3,0.3l-235.9,70.9c0.1-0.4,0.2-0.8,0.3-1.1c0.1-0.3,0.2-0.7,0.3-1c0.1-0.6,0.3-1.2,0.4-1.9
		c0.1-0.4,0.2-0.8,0.3-1.2c0.1-0.6,0.2-1.2,0.4-1.8c0.1-0.5,0.2-0.9,0.3-1.4s0.2-1.1,0.3-1.6s0.2-1.1,0.3-1.6c0-0.3,0.1-0.6,0.1-0.8
		l121.3-40.1c3.9-1.3,6.1-5.5,4.8-9.5c-1.3-3.9-5.5-6.1-9.5-4.8L239.1,78.8c-0.8-1.4-1.9-2.7-3.2-3.7c-3.4-2.7-8-3.5-12.2-2.1
		l-12.4,4c-5,1.6-8.5,6.1-8.9,11.3c-0.1,0.9-0.2,1.8-0.3,2.7l-16.5,5.4c-0.7-1.1-1.5-2.2-2.5-3.1c-3.5-3.2-8.4-4.2-12.9-2.8
		L156.5,95c-3.7,1.2-6.6,4-8.1,7.7c-0.9,2.4-2,4.7-3.1,6.9l-17.6,5.8c-0.4-0.8-0.9-1.5-1.5-2.1c-3.5-3.9-8.9-5.4-13.8-3.7l-15.1,5
		c-3.8,1.3-6.8,4.2-8.2,7.9c-0.8,2.1-1.4,4.2-2,6.4l-16.8,5.6c-0.7-1.2-1.6-2.3-2.7-3.3c-3.5-3.1-8.2-4-12.7-2.6l-12.4,4.1
		c-4.9,1.6-8.4,6-8.9,11.1c-0.1,1-0.2,1.9-0.3,2.9L17,152.1c-8,2.6-12.5,11.3-9.9,19.4l1.2,3.7c1.4,4.3,4.5,7.6,8.3,9.4
		c-1.8,3-2.6,6.5-2.1,10.2l0.5,3.8c1.1,7.7,7.8,13.4,15.4,13.4c0.6,0,1.3,0,1.9-0.1l15.2-1.9c1.9,5.2,3.1,10.9,3.1,19.9
		c0,13.9-2.8,19.9-6.8,28.3c-2.4,5.1-5.1,10.8-7.1,18.1H11.8c-3.3,0-6.5,1.4-8.8,3.9c-2.2,2.5-3.3,5.8-3,9.1
		c4.5,45.4,24.4,129.2,106.1,182.1v12.8c0,12.6,10.3,22.9,22.9,22.9h195.3c12.6,0,22.9-10.3,22.9-22.9v-12.9
		c81.7-52.9,101.5-136.7,106.1-182.1c0.3-3.3-0.8-6.6-3-9.1s-5.4-3.9-8.8-3.9H229.4c0.1-0.2,0.2-0.5,0.3-0.7
		c4.7-10.1,10.6-22.6,10.6-45.7c0-21-4.9-33.2-9.3-42.9l267.4-33.5c4.1-0.5,7.8-2.6,10.4-6C511.3,144.2,512.4,140.1,511.8,136z
		 M22.5,170.7l-1.2-3.7c-0.1-0.3,0.1-0.6,0.3-0.7l11.6-3.8c0,0.4,0,0.8,0.1,1.1c0,0.2,0,0.5,0,0.7c0,0.5,0.1,1.1,0.1,1.6v0.1
		c0.1,0.6,0.1,1.2,0.2,1.8L23,171C22.9,171.2,22.6,171,22.5,170.7z M30.3,197c-0.3,0-0.6-0.2-0.6-0.5l-0.5-3.8
		c0-0.3,0.2-0.6,0.4-0.6l9.4-1.4c0,0.1,0.1,0.2,0.1,0.3c0.3,0.7,0.5,1.4,0.8,2.1c0,0.1,0.1,0.2,0.1,0.3c0.3,0.8,0.6,1.5,0.9,2.2v0.1
		L30.3,197z M204.2,129.1C204.2,129.1,204.3,129,204.2,129.1c0.8-2.3,1.6-4.5,2.5-6.5l0,0c0.9-2,1.8-4,2.7-5.9
		c0.1-0.2,0.2-0.4,0.3-0.6c0.1-0.3,0.3-0.6,0.4-0.9c0.1-0.2,0.2-0.5,0.3-0.7c0.3-0.6,0.5-1.2,0.8-1.8c0-0.1,0.1-0.2,0.1-0.2
		c0.2-0.5,0.5-1.1,0.7-1.6c0.1-0.2,0.1-0.3,0.2-0.5c0.3-0.6,0.5-1.2,0.8-1.9c0.1-0.1,0.1-0.3,0.2-0.4c0.2-0.5,0.4-1.1,0.6-1.6
		c0.1-0.2,0.1-0.4,0.2-0.6c0.2-0.6,0.4-1.3,0.6-2c0.1-0.2,0.1-0.5,0.2-0.7c0.1-0.5,0.3-1,0.4-1.6c0.1-0.3,0.1-0.5,0.2-0.8
		c0.2-0.7,0.3-1.4,0.5-2.2c0-0.1,0.1-0.2,0.1-0.3v-0.1c0.5-2.2,0.8-4.6,1.1-7.2l8.3-2.7c-0.1,1-0.2,2.1-0.4,3.1
		c0,0.2-0.1,0.3-0.1,0.5c-0.1,0.9-0.3,1.8-0.4,2.7c0,0.3-0.1,0.5-0.1,0.8c-0.2,1-0.4,2.1-0.6,3.1c0,0.1,0,0.1,0,0.2
		c-0.2,1-0.4,1.9-0.7,2.9c-0.1,0.3-0.1,0.6-0.2,0.9c-0.2,0.9-0.5,1.9-0.7,2.8c0,0.1-0.1,0.2-0.1,0.3c-0.3,1-0.6,1.9-0.9,2.9
		c-0.1,0.2-0.1,0.4-0.2,0.6c-0.3,1-0.7,2-1,3c0,0.1,0,0.1-0.1,0.2c-0.4,1.1-0.8,2.1-1.2,3.2l0,0c-0.9,2.2-1.7,4.2-2.6,6
		c-4.2,8.9-8.2,17.4-8.2,34.6c0,0.1,0,0.2,0,0.2l0,0c0,0.9,0,1.7,0,2.5c0,0.5,0,1.1,0.1,1.6c0,0.3,0,0.6,0,0.9
		c0,0.6,0.1,1.2,0.1,1.8c0,0.1,0,0.3,0,0.4c0.4,5.5,1.3,9.9,2.5,13.9v0.1c0.4,1.3,0.8,2.6,1.3,3.9c0,0,0,0,0,0.1
		c1.2,3.2,2.6,6.2,4,9.2c4.5,9.6,9.2,19.6,9.2,39.3s-4.7,29.7-9.2,39.3c-1.1,2.3-2.2,4.6-3.2,7.1h-8.5c1.5-4.3,3.3-8.1,5-11.8
		c4.2-8.9,8.2-17.4,8.2-34.6s-4-25.7-8.2-34.6c-2-4.2-4-8.5-5.6-13.7l0,0c-2.1-6.7-3.2-13.9-3.5-22.1l0,0c0-1.1,0-2.2,0-3.4
		C200.3,144.2,201.9,135.9,204.2,129.1z M179,275.5c4.7-10.1,10.6-22.6,10.6-45.7c0-16.9-3.1-28.1-6.7-36.8l8.7-1.1
		c1.4,3.6,2.9,6.7,4.3,9.7c3.9,8.3,6.8,14.4,6.8,28.2s-2.8,19.9-6.8,28.3c-2.4,5.1-5.1,10.8-7.1,18.1h-10.1
		C178.8,276,178.9,275.8,179,275.5z M176.5,178.7c-0.1-0.1-0.1-0.2-0.2-0.4c-0.1-0.3-0.3-0.7-0.4-1c-0.1-0.3-0.2-0.6-0.4-0.9
		c-0.2-0.5-0.4-1-0.6-1.6c0-0.1-0.1-0.3-0.1-0.4c-0.5-1.4-0.9-2.8-1.2-4.3l12.2-1.9c0,0.1,0,0.2,0,0.3c0.2,1.4,0.3,2.8,0.5,4.1
		c0,0.1,0,0.3,0.1,0.4c0.2,1.4,0.5,2.7,0.7,4c0,0.1,0,0.2,0.1,0.3L176.5,178.7z M185.3,112.3l11.4-3.8c0,0.1-0.1,0.2-0.1,0.3
		c-0.2,0.4-0.3,0.7-0.5,1.1c-0.1,0.1-0.1,0.2-0.2,0.3c-1.1,2.3-2.2,4.7-3.4,7.4c0,0.1-0.1,0.1-0.1,0.2c-0.3,0.8-0.7,1.7-1,2.5
		c0,0.1,0,0.1-0.1,0.2l-10.6,3.2C182.4,120.3,183.9,116.6,185.3,112.3z M173.7,141.5l13-3.9c-0.8,4.6-1.3,9.7-1.4,15.6l-13.1,2
		C172.3,149.5,172.8,145.2,173.7,141.5z M150.2,143.9L150.2,143.9c0.9-7.6,2.6-13.4,4.6-18.4c0-0.1,0-0.1,0.1-0.2
		c0.3-0.8,0.7-1.7,1-2.4c0.1-0.1,0.1-0.3,0.2-0.4c0.1-0.3,0.2-0.5,0.3-0.8c0.1-0.1,0.1-0.3,0.2-0.4c0.2-0.4,0.3-0.7,0.5-1.1
		c0-0.1,0.1-0.2,0.1-0.2c0.1-0.3,0.3-0.6,0.4-0.9c0.4-0.8,0.8-1.7,1.2-2.5c1.1-2.3,2.3-4.9,3.4-7.6l9.4-3.1
		c-1.7,5.9-3.9,10.8-6,15.1c-0.1,0.1-0.1,0.2-0.2,0.3c-0.1,0.1-0.1,0.3-0.2,0.4c-0.2,0.3-0.3,0.7-0.5,1c-0.1,0.3-0.3,0.6-0.4,0.9
		c-0.1,0.2-0.2,0.4-0.3,0.6c-0.2,0.4-0.3,0.8-0.5,1.1c0,0.1-0.1,0.2-0.1,0.3c-3.4,7.6-6.2,15.8-6.2,30.3c0,3.1,0.1,6,0.4,8.6l0,0
		c0,0,0,0,0,0.1c0,0.4,0.1,0.7,0.1,1.1c0,0.4,0.1,0.8,0.1,1.2c0.1,0.5,0.1,1,0.2,1.5c0,0.2,0.1,0.4,0.1,0.5c0.9,5.7,2.3,10.2,4,14.3
		c0.1,0.1,0.1,0.3,0.2,0.4c0.1,0.2,0.1,0.3,0.2,0.5c0.2,0.4,0.3,0.8,0.5,1.2c0,0.1,0.1,0.2,0.1,0.2c0.7,1.5,1.4,3,2,4.4l0,0
		c0.1,0.2,0.2,0.3,0.2,0.5c4.5,9.6,9.2,19.6,9.2,39.3s-4.7,29.7-9.2,39.3c-1.1,2.3-2.2,4.6-3.2,7.1h-8.5c1.5-4.3,3.3-8.1,5-11.8
		c4.2-8.9,8.2-17.4,8.2-34.6s-4-25.7-8.2-34.6c-1.2-2.6-2.5-5.3-3.7-8.2l0,0c-2.7-6.7-4.3-13-5-20.5c0,0,0,0,0-0.1
		c-0.3-3.2-0.5-6.7-0.5-10.5C149.6,151.4,149.8,147.5,150.2,143.9z M145.2,201.6c3.9,8.3,6.8,14.4,6.8,28.2s-2.8,19.9-6.8,28.3
		c-2.4,5.1-5.1,10.8-7.1,18.1H128c0.1-0.2,0.2-0.5,0.3-0.7c4.7-10.1,10.6-22.6,10.6-45.7c0-13.2-1.9-22.9-4.5-30.8l9.1-1.1
		C144.1,199.2,144.7,200.4,145.2,201.6z M126.8,180.8C126.7,180.8,126.7,180.8,126.8,180.8c-0.5-1.1-1-2.2-1.4-3.3l11-1.7
		c0,0.1,0.1,0.2,0.1,0.4c0.2,1.1,0.4,2.2,0.7,3.2c0.1,0.2,0.1,0.5,0.2,0.7c0.3,1.1,0.5,2.1,0.8,3.1c0,0.1,0,0.2,0.1,0.3l-9.5,1.2
		c-0.1-0.2-0.2-0.4-0.3-0.6V184C127.7,183,127.2,181.9,126.8,180.8z M126.4,131.8l11.8-3.9c-0.3,1-0.6,2-0.8,3c0,0.1,0,0.1-0.1,0.2
		c-0.3,1.4-0.7,2.8-0.9,4.3c0,0.1,0,0.2-0.1,0.3c-0.1,0.5-0.2,0.9-0.3,1.4l-13,3.9C123.9,137.7,125.1,134.8,126.4,131.8z
		 M134.6,153.2c0,0.9,0,1.8,0,2.7c0,1.7,0,3.4,0.1,5l-12.9,2c-0.2-1.8-0.2-3.7-0.3-5.7L134.6,153.2z M114.8,121.2L114.8,121.2
		c0.1,0.1,0.1,0.2,0,0.2V121.2C114.8,121.3,114.8,121.2,114.8,121.2z M98.9,153.4c0-0.5,0-1,0-1.5c0-0.3,0-0.6,0-0.9
		c0-0.6,0.1-1.2,0.1-1.7c0-0.2,0-0.4,0-0.5c0-0.6,0.1-1.2,0.1-1.8c0-0.1,0-0.3,0-0.4c0.1-0.6,0.1-1.2,0.2-1.7c0-0.1,0-0.2,0-0.3
		c0.2-1.6,0.4-3.1,0.6-4.5c0.1-0.3,0.1-0.7,0.2-1s0.1-0.5,0.2-0.8c0.1-0.5,0.2-1,0.3-1.5c0.7-3.3,1.5-5.9,2.3-8.1l9.9-3.3
		c-3.4,7.7-6.3,16-6.3,30.6c0,14.7,2.9,23,6.4,30.7l0,0c0.3,0.6,0.6,1.3,0.9,1.9c0,0,0,0,0,0.1c0.3,0.6,0.6,1.3,0.9,1.9
		c0,0.1,0.1,0.1,0.1,0.2c0.4,0.8,0.7,1.5,1.1,2.3v0.1c0.4,0.9,0.8,1.8,1.2,2.7l0,0c3.6,8.2,6.8,17.8,6.8,34
		c0,19.7-4.7,29.7-9.2,39.3c-1.1,2.3-2.2,4.6-3.2,7.1H103c1.5-4.3,3.3-8.1,5-11.8c4.2-8.9,8.2-17.4,8.2-34.6s-4-25.7-8.2-34.6
		c-0.4-0.8-0.8-1.7-1.2-2.5l0,0c-0.3-0.6-0.6-1.2-0.9-1.9c0,0,0,0,0-0.1c-2.1-4.6-4.2-10.1-5.6-17.3v-0.1c-0.8-4.3-1.4-9.3-1.5-15.1
		l0,0c0-0.8,0-1.5,0-2.3C98.9,155.1,98.9,154.2,98.9,153.4z M95.6,204c3.3,7.2,5.7,13.3,5.7,25.9c0,13.9-2.8,19.9-6.8,28.3
		c-2.4,5.1-5.1,10.8-7.1,18.1H77.3c0.1-0.2,0.2-0.5,0.3-0.7c4.7-10.1,10.6-22.6,10.6-45.7c0-10-1.1-17.9-2.7-24.6L95.6,204z
		 M87.3,183.3c0,0.1,0.1,0.2,0.1,0.2c0.3,1,0.6,2,0.9,2.9c0,0.1,0.1,0.2,0.1,0.3c0.3,1,0.6,1.9,1,2.8c0,0,0,0,0,0.1l-8.8,1.1l0,0
		c-0.9-2.1-1.8-4.1-2.7-6L87.3,183.3z M84.5,168.6l-2.1,0.3l2.1-0.6C84.5,168.4,84.5,168.5,84.5,168.6z M70.9,153.1
		c0-0.1,0-0.2,0-0.4c0-0.9,0.1-1.7,0.1-2.6c0-0.1,0-0.1,0-0.2l13.2-4.4c0,0.2,0,0.4,0,0.6c0,0.5-0.1,1-0.1,1.4
		c-0.1,0.9-0.1,1.8-0.1,2.7c0,0.5,0,1-0.1,1.5c0,0.3,0,0.6,0,0.9l-13.1,3.9c0-0.3,0-0.5,0-0.8C70.8,155,70.9,154.1,70.9,153.1z
		 M49.4,172.1C49.4,172,49.4,172,49.4,172.1c-0.4-2.5-0.7-5.1-0.9-7.7v-0.1c0-0.6-0.1-1.1-0.1-1.7c0-0.2,0-0.4,0-0.6
		c0-0.4,0-0.9-0.1-1.3c0-0.2,0-0.5,0-0.7c0-0.4,0-0.9,0-1.3c0-0.2,0-0.4,0-0.6c0-0.7,0-1.3,0-2c0-0.6,0-1.3,0-1.9c0-0.5,0-0.9,0-1.4
		c0.1-2.1,0.2-4.1,0.4-6.1l8.1-2.7c-0.1,0.6-0.2,1.3-0.2,1.9c0,0.2-0.1,0.4-0.1,0.6c-0.1,0.7-0.1,1.5-0.2,2.3c0,0.3,0,0.5-0.1,0.8
		c-0.1,0.8-0.1,1.5-0.1,2.3c0,0.3,0,0.6,0,0.8c0,1.1-0.1,2.2-0.1,3.3s0,2.1,0,3.1c0.4,13.8,3.6,21.7,7.1,29.3c0,0.1,0.1,0.2,0.1,0.2
		c0.3,0.7,0.6,1.3,0.9,2v0.1c0.4,0.8,0.8,1.6,1.1,2.4l0,0c1.2,2.6,2.4,5.3,3.5,8.3l0,0c2.6,7.1,4.5,15.7,4.5,28.4
		c0,19.7-4.7,29.7-9.2,39.3c-1.1,2.3-2.2,4.6-3.2,7.1h-8.5c1.5-4.3,3.3-8.1,5-11.8c4.2-8.9,8.2-17.4,8.2-34.6s-4-25.7-8.2-34.6l0,0
		c-0.2-0.4-0.4-0.9-0.6-1.3c-0.1-0.2-0.1-0.3-0.2-0.5c-0.2-0.5-0.4-0.9-0.7-1.4c0-0.1-0.1-0.2-0.1-0.3c-0.2-0.5-0.5-1-0.7-1.6
		c0-0.1-0.1-0.1-0.1-0.2c-0.2-0.6-0.5-1.1-0.7-1.7v-0.1c-1-2.4-2-5.1-2.9-7.9c0,0,0,0,0-0.1C50.6,177.7,49.9,175,49.4,172.1z
		 M438,291.2c-4.9,43.6-24.7,120-99.9,168.2H184.8c-4.1,0-7.5,3.4-7.5,7.5s3.4,7.5,7.5,7.5h147.5v9.8c0,4.4-3.5,7.9-7.9,7.9H129.1
		c-4.4,0-7.9-3.5-7.9-7.9v-9.8h28.7c4.1,0,7.5-3.4,7.5-7.5s-3.4-7.5-7.5-7.5h-34.6c-75.2-48.2-95-124.6-99.9-168.2H438z
		 M496.9,138.4c-0.1,0.2-0.3,0.2-0.4,0.2l-271.5,34c-0.8-2.8-1.5-6-1.8-10.1l270.9-41.4c0.1,0,0.2,0,0.4,0.1
		c0.2,0.1,0.2,0.3,0.2,0.3L497,138C497,138.1,497,138.3,496.9,138.4z"/>
</g>
<g class="st5">
	<path d="M285.2,207v13.2c-1.3-0.2-2.2-0.3-3.3-0.3c-4.5,0-7.7,2-7.7,7.8v16h-14.9v-36.1h14.2v3.9C276.1,208.5,280.2,207,285.2,207z
		"/>
	<path d="M324.8,224.4v19.4h-13.9V239c-1.7,3.6-5.1,5.4-10.2,5.4c-8.8,0-13.4-5-13.4-11.2c0-7,5.3-10.9,16.5-10.9h6
		c-0.5-2.8-2.6-4.2-6.8-4.2c-3.2,0-6.9,1.1-9.2,2.8l-4.8-9.8c4.2-2.6,10.6-4.1,16.2-4.1C317.6,207,324.8,212.3,324.8,224.4z
		 M309.9,232v-2.5h-3.7c-3.2,0-4.6,1.1-4.6,3c0,1.6,1.3,2.9,3.6,2.9C307.2,235.4,309.1,234.4,309.9,232z"/>
	<path d="M393.4,223.2v20.6h-14.9v-18c0-4.5-1.6-6.2-4-6.2c-2.6,0-4.7,1.8-4.7,6.6v17.6h-14.9v-18c0-4.5-1.5-6.2-4-6.2
		c-2.6,0-4.7,1.8-4.7,6.6v17.6h-14.9v-36.1h14.2v3.4c2.7-2.7,6.3-4,10.2-4c4.7,0,8.8,1.7,11.3,5.5c2.9-3.5,7.1-5.5,12.1-5.5
		C387.2,207,393.4,211.8,393.4,223.2z"/>
	<path d="M438.7,229.2h-25.1c1.1,2.8,3.6,4.2,7.3,4.2c3.3,0,5.1-0.9,7.5-2.6l7.8,7.9c-3.5,3.8-8.6,5.8-15.8,5.8
		c-13.3,0-21.8-8-21.8-18.7c0-11,8.8-18.7,20.5-18.7c10.7,0,19.9,6.5,19.9,18.7C438.9,226.7,438.8,228.1,438.7,229.2z M413.4,222
		H425c-0.6-3-2.8-4.8-5.8-4.8C416.1,217.2,414,218.9,413.4,222z"/>
	<path d="M483.5,223.2v20.6h-14.9v-18c0-4.5-1.7-6.2-4.4-6.2c-3,0-5.6,1.9-5.6,7.3v17h-14.9v-36.1h14.2v3.6
		c2.8-2.8,6.7-4.2,10.9-4.2C477,207,483.5,211.8,483.5,223.2z"/>
</g>
</svg>
